<?xml version="1.0" encoding="utf-8"?>
<!-- Generator: Adobe Illustrator 27.0.0, SVG Export Plug-In . SVG Version: 6.00 Build 0)  -->
<svg version="1.1" id="Capa_1" xmlns="http://www.w3.org/2000/svg" xmlns:xlink="http://www.w3.org/1999/xlink" x="0px" y="0px"
	 viewBox="0 0 512 512" style="enable-background:new 0 0 512 512;" xml:space="preserve">
<style type="text/css">
	.st0{fill:#FDD204;}
	.st1{fill:#FFFFFF;}
	.st2{fill:none;stroke:#000000;stroke-width:3.6773;stroke-linecap:round;stroke-miterlimit:10;}
	.st3{fill:#FDD204;stroke:#000000;stroke-width:3.6773;stroke-miterlimit:10;}
	.st4{fill:#FFFFFF;stroke:#000000;stroke-width:3.6773;stroke-miterlimit:10;}
</style>
<g>
	<g>
		<g>
			<path class="st0" d="M119.8,440V281.6c0-9.8,5.9-18.7,15-22.7l67.7-28.9c1.2-0.5,2.5-0.8,3.7-0.8c4.4,0,9.1,3.6,9.1,9.3v16.4
				l64.3-25.7c1.1-0.4,2.3-0.7,3.5-0.7c4.4,0,9.2,3.6,9.2,9.3v29.5H359l11-115.1c0.5-3.9,2.8-8.1,7.9-8.1H397c4.8,0,7.5,1.2,7.9,7.8
				l10.7,109.5V440H119.8z"/>
			<g>
				<path class="st1" d="M397,150.4c0.7,0,1.2,0.1,1.5,0.1c0.1,0.4,0.2,1,0.3,2v0.2v0.2l10.7,109v171.9H126V281.6
					c0-7.4,4.4-14.1,11.3-17.1l67.7-28.9h0.1h0.1c0.4-0.2,0.8-0.3,1.2-0.3c1.2,0,3,1,3,3.2v7.4V264l16.8-6.7l55.9-22.3
					c0.4-0.2,0.8-0.2,1.2-0.2c1.3,0,3.1,1,3.1,3.2v23.4v12.3h12.3h55h11.1l1.1-11.1L376.2,153c0.3-2.6,1.5-2.6,1.8-2.6H397
					 M397,138.1h-19c-7.9,0-13.1,5.9-14,13.6l-10.5,109.6h-55v-23.4c0-8.9-7.2-15.4-15.4-15.4c-1.9,0-3.8,0.3-5.7,1.1l-55.9,22.3
					v-7.4c0-8.9-7.2-15.5-15.3-15.5c-2,0-4.1,0.4-6.1,1.3l-67.8,28.9c-11.2,4.9-18.6,16-18.6,28.3V446h308V261.3L411,151.7
					C410.3,141.5,404.7,138.1,397,138.1L397,138.1z"/>
			</g>
		</g>
		<g>
			<rect x="126" y="407.1" class="st0" width="283.2" height="39.6"/>
		</g>
		<g>
			<path d="M397,141.8c6.9,0,9.9,2.9,10.3,10.1v0.1v0.1L418,261.5v181.8H117.4V281.6c0-10.8,6.4-20.6,16.4-25l67.8-29
				c1.5-0.7,3.1-1,4.6-1c6.4,0,11.6,5.3,11.6,11.8v7.4v5.4l5-2l55.9-22.3c1.4-0.6,2.9-0.8,4.4-0.8c6.4,0,11.7,5.3,11.7,11.7v23.4
				v3.7h3.7h55h3.3l0.3-3.3L367.6,152c0.8-6.2,4.8-10.3,10.4-10.3h19 M397,138.1h-19c-7.9,0-13.1,5.9-14,13.6l-10.5,109.6h-55v-23.4
				c0-8.9-7.2-15.4-15.4-15.4c-1.9,0-3.8,0.3-5.7,1.1l-55.9,22.3v-7.4c0-8.9-7.2-15.5-15.3-15.5c-2,0-4.1,0.4-6.1,1.3l-67.8,28.9
				c-11.2,4.9-18.6,16-18.6,28.3V447h308V261.3L411,151.7C410.3,141.5,404.7,138.1,397,138.1L397,138.1z"/>
		</g>
		<g>
			<path class="st1" d="M206.1,382.6c-7.5,0-13.6-6.1-13.6-13.6v-30.8c0-7.5,6.1-13.6,13.6-13.6s13.6,6.1,13.6,13.6V369
				C219.7,376.6,213.6,382.6,206.1,382.6z"/>
			<path d="M206.1,326.6c6.5,0,11.7,5.3,11.7,11.7v30.8c0,6.5-5.3,11.7-11.7,11.7c-6.5,0-11.7-5.3-11.7-11.7v-30.8
				C194.4,331.8,199.6,326.6,206.1,326.6 M206.1,322.9c-8.5,0-15.4,6.9-15.4,15.4v30.8c0,8.5,6.9,15.4,15.4,15.4s15.4-6.9,15.4-15.4
				v-30.8C221.5,329.8,214.6,322.9,206.1,322.9L206.1,322.9z"/>
		</g>
		<g>
			<path class="st1" d="M267.7,382.6c-7.5,0-13.6-6.1-13.6-13.6v-30.8c0-7.5,6.1-13.6,13.6-13.6s13.6,6.1,13.6,13.6V369
				C281.3,376.6,275.2,382.6,267.7,382.6z"/>
			<path d="M267.7,326.6c6.5,0,11.7,5.3,11.7,11.7v30.8c0,6.5-5.3,11.7-11.7,11.7s-11.7-5.3-11.7-11.7v-30.8
				C256,331.8,261.2,326.6,267.7,326.6 M267.7,322.9c-8.5,0-15.4,6.9-15.4,15.4v30.8c0,8.5,6.9,15.4,15.4,15.4s15.4-6.9,15.4-15.4
				v-30.8C283.1,329.8,276.2,322.9,267.7,322.9L267.7,322.9z"/>
		</g>
		<g>
			<path class="st1" d="M329.3,382.6c-7.5,0-13.6-6.1-13.6-13.6v-30.8c0-7.5,6.1-13.6,13.6-13.6s13.6,6.1,13.6,13.6V369
				C342.9,376.6,336.8,382.6,329.3,382.6z"/>
			<path d="M329.3,326.6c6.5,0,11.7,5.3,11.7,11.7v30.8c0,6.5-5.3,11.7-11.7,11.7c-6.5,0-11.7-5.3-11.7-11.7v-30.8
				C317.6,331.8,322.8,326.6,329.3,326.6 M329.3,322.9c-8.5,0-15.4,6.9-15.4,15.4v30.8c0,8.5,6.9,15.4,15.4,15.4s15.4-6.9,15.4-15.4
				v-30.8C344.7,329.8,337.8,322.9,329.3,322.9L329.3,322.9z"/>
		</g>
	</g>
	<line class="st2" x1="61.1" y1="445.3" x2="445.2" y2="445.3"/>
	<g>
		<path class="st3" d="M98.5,181h56.4c21.6-21.7,32.5-41,32.5-58.1c0-34.9-28.8-57.5-60.7-57.5S65.9,88,65.9,123
			C65.9,140,76.8,159.4,98.5,181z"/>
		<path class="st4" d="M146,212.2h-38.8c-2.4,0-4.5-1.8-4.8-4.2l-4-26.9H155l-4,26.9C150.5,210.4,148.5,212.2,146,212.2z"/>
		<path class="st3" d="M111.1,212.2c0,8.3,6.8,15,15.1,15s15.1-6.7,15.1-15H111.1z"/>
		<g>
			<line class="st2" x1="126.7" y1="149.5" x2="126.7" y2="181"/>
			<line class="st2" x1="108.5" y1="132.1" x2="126.5" y2="150"/>
			<line class="st2" x1="144.7" y1="132.2" x2="126.7" y2="150"/>
		</g>
	</g>
</g>
</svg>
