<?xml version="1.0" encoding="utf-8"?>
<!-- Generator: Adobe Illustrator 27.0.0, SVG Export Plug-In . SVG Version: 6.00 Build 0)  -->
<svg version="1.1" id="Capa_1" xmlns="http://www.w3.org/2000/svg" xmlns:xlink="http://www.w3.org/1999/xlink" x="0px" y="0px"
	 viewBox="0 0 512 512" style="enable-background:new 0 0 512 512;" xml:space="preserve">
<style type="text/css">
	.st0{fill:#FDD204;}
	.st1{fill:#FFFFFF;}
	.st2{fill:#FFFFFF;stroke:#000000;stroke-width:3.6773;stroke-miterlimit:10;}
	.st3{fill:none;stroke:#000000;stroke-width:3.6773;stroke-miterlimit:10;}
</style>
<g>
	<g>
		<g>
			<path class="st0" d="M296.4,438.8c-6.2,0-12.1-2.2-16.6-6.3c-4.9-4.4-9.8-8.7-14.5-12.9C195.3,357.2,149,315.9,149.2,264
				c0-25.6,11.7-48.7,32.2-63.2c13.4-9.4,28.9-14.4,44.8-14.4c24.5,0,48.8,11.9,66.5,32.7l4.7,5.5l4.7-5.5
				c17-20.2,40.3-31.3,65.6-31.3c15.3,0,29.9,4.2,41.2,11.8c20.6,14,33.1,35.9,34.4,60c3.1,55.2-47,99.5-116.4,160.8
				c-4.6,4-9.2,8.1-13.9,12.3C308.3,436.6,302.5,438.8,296.4,438.8L296.4,438.8z"/>
			<path class="st1" d="M226.2,192.4c11.1,0,22.1,2.6,32.5,7.6c10.9,5.3,20.8,13,29.3,22.9l9.4,11l9.3-11.1
				c21.4-25.4,47.4-29.2,60.9-29.2c14,0,27.5,3.8,37.8,10.7c19,12.9,30.5,33,31.7,55.3l0,0l0,0c1.3,23.5-8,46.8-29.2,73.2
				c-20.7,25.7-50.6,52.1-85.1,82.6c-4.6,4-9.2,8.1-13.9,12.3c-3.4,3-7.8,4.7-12.4,4.7s-9.1-1.7-12.5-4.8c-4.9-4.4-9.8-8.7-14.5-13
				c-68.8-61.3-114.2-101.8-114.1-151c0-23.6,10.8-44.8,29.6-58.2C197.2,197,211.5,192.4,226.2,192.4 M226.2,180.2
				c-16.8,0-33.6,5.1-48.4,15.5c-22.2,15.8-34.8,40.8-34.8,68.2c-0.2,58.4,54.1,102.8,132.7,173.1c5.9,5.2,13.3,7.9,20.7,7.9
				c7.3,0,14.6-2.6,20.5-7.7c76.3-67.7,135.9-116.1,132.4-178c-1.4-26.5-15.2-49.9-37.1-64.8c-12.1-8.1-27.8-12.8-44.6-12.8
				c-24.2,0-50.4,9.8-70.3,33.5C277.7,192.1,251.8,180.2,226.2,180.2L226.2,180.2z"/>
		</g>
	</g>
	<g>
		<g>
			<path d="M224.5,180.6c12.6,0,25,2.9,36.8,8.6c12.2,5.9,23.2,14.5,32.6,25.5l2.8,3.3l2.8-3.3c17.8-21.1,42.1-32.7,68.6-32.7
				c16,0,31.3,4.4,43.2,12.4c21.6,14.6,34.7,37.6,36,63c1.5,26.2-8.6,51.7-31.6,80.4c-21.5,26.7-52.1,53.7-87.5,85
				c-4.6,4.1-9.3,8.3-14.1,12.5c-5.1,4.5-11.6,6.9-18.4,6.9c-6.9,0-13.5-2.5-18.6-7.1c-5-4.5-9.9-8.9-14.7-13.1
				c-71.6-63.8-118.9-106-118.8-159.9c0-26.8,12.3-51,33.8-66.2C191.5,185.8,207.7,180.6,224.5,180.6 M224.5,176.9
				c-17.1,0-34.1,5.2-49.1,15.8c-22.6,16-35.3,41.4-35.3,69.2c-0.2,59.3,54.9,104.4,134.7,175.8c6,5.3,13.5,8,21,8
				c7.4,0,14.9-2.6,20.8-7.9C394.1,369,454.6,319.9,451,257c-1.4-26.9-15.4-50.7-37.6-65.8c-12.2-8.2-28.3-13-45.3-13
				c-24.5,0-51.1,10-71.4,34C276.8,189,250.5,176.9,224.5,176.9L224.5,176.9z"/>
		</g>
	</g>
	<g>
		<path class="st1" d="M282.3,362.9c-1.7,0-3.1-1.4-3.1-3.1v-35.3H244c-1.7,0-3.1-1.4-3.1-3.1v-29c0-1.7,1.4-3.1,3.1-3.1h35.3V254
			c0-1.7,1.4-3.1,3.1-3.1h29c1.7,0,3.1,1.4,3.1,3.1v35.3h35.3c1.7,0,3.1,1.4,3.1,3.1v29c0,1.7-1.4,3.1-3.1,3.1h-35.3v35.3
			c0,1.7-1.4,3.1-3.1,3.1H282.3z"/>
		<path d="M311.3,253c0.7,0,1.2,0.5,1.2,1.2v33.4v3.7h3.7h33.4c0.7,0,1.2,0.5,1.2,1.2v29c0,0.7-0.5,1.2-1.2,1.2h-33.4h-3.7v3.7v33.4
			c0,0.7-0.5,1.2-1.2,1.2h-29c-0.7,0-1.2-0.5-1.2-1.2v-33.4v-3.7h-3.7H244c-0.7,0-1.2-0.5-1.2-1.2v-29c0-0.7,0.5-1.2,1.2-1.2h33.4
			h3.7v-3.7v-33.4c0-0.7,0.5-1.2,1.2-1.2L311.3,253 M311.3,249.3h-29c-2.7,0-4.9,2.2-4.9,4.9v33.4H244c-2.7,0-4.9,2.2-4.9,4.9v29
			c0,2.7,2.2,4.9,4.9,4.9h33.4v33.4c0,2.7,2.2,4.9,4.9,4.9h29c2.7,0,4.9-2.2,4.9-4.9v-33.4h33.4c2.7,0,4.9-2.2,4.9-4.9v-29
			c0-2.7-2.2-4.9-4.9-4.9h-33.4v-33.4C316.2,251.5,314,249.3,311.3,249.3L311.3,249.3z"/>
	</g>
	<g>
		<circle class="st0" cx="148" cy="148.2" r="79.5"/>
		<path d="M148,70.5c42.8,0,77.7,34.9,77.7,77.7s-34.9,77.7-77.7,77.7S70.3,191,70.3,148.2S105.2,70.5,148,70.5 M148,66.9
			c-44.9,0-81.4,36.4-81.4,81.4s36.4,81.4,81.4,81.4s81.4-36.4,81.4-81.4S193,66.9,148,66.9L148,66.9z"/>
	</g>
	<path class="st2" d="M102.4,169.8l-2.7,21.8c-0.2,1.3,0.4,2.6,1.6,3.3l24.9,15.6c1.1,0.7,2.5,0.7,3.6-0.1l16.4-10.8
		c2.1-1.4,2.8-4.1,1.5-6.3L134,168.6c-0.6-1.1-1.7-1.7-2.9-1.7h-25.3C104,166.8,102.6,168.1,102.4,169.8"/>
	<path class="st2" d="M142.4,102.8l11,24.7c0.8,1.7,2.5,2.8,4.4,2.8H188c2.4,0,4.5-1.8,4.7-4.3l2.1-20.4c0.1-1.3-0.5-2.6-1.7-3.3
		l-24.5-14c-1-0.6-2.3-0.6-3.3,0l-21.5,10.2C142.3,99.4,141.7,101.3,142.4,102.8"/>
	<path class="st2" d="M225.8,164.1l-12.8-0.7c-1.2,0-2.3,0.6-2.9,1.6l-16.2,29.2c-0.5,0.8-0.6,1.8-0.3,2.8l6.6,9.8l1.4-0.3
		c3.3-2.9,7.4-6.7,13.4-15.8c5.9-9,8.9-17.8,10.1-22.8L225.8,164.1z"/>
	<path class="st2" d="M104.8,88.4"/>
	<path class="st2" d="M103.4,83.2l1,14.3c0.1,0.8,0,1.6-0.4,2.3L85.7,130c-0.4,0.7-1.1,1.2-1.9,1.5l-13.9,3.3l1-4.6
		c1-4.7,3.8-12.7,10.9-24.5c4.9-8.2,12.7-15.2,17.6-19.2L103.4,83.2z"/>
	<line class="st3" x1="104.1" y1="98.5" x2="142.6" y2="100.9"/>
	<line class="st3" x1="167.5" y1="88.4" x2="161.8" y2="69.9"/>
	<line class="st3" x1="155" y1="129.4" x2="133.3" y2="167"/>
	<line class="st3" x1="84.5" y1="130.9" x2="103.4" y2="167.8"/>
	<line class="st3" x1="101" y1="193.8" x2="84.3" y2="194.3"/>
	<line class="st3" x1="127.8" y1="210.5" x2="130.8" y2="226.1"/>
	<line class="st3" x1="147.6" y1="197" x2="193.2" y2="195.6"/>
	<line class="st3" x1="190.7" y1="129.3" x2="210.8" y2="163.3"/>
	<line class="st3" x1="194.3" y1="103.2" x2="209.9" y2="100.2"/>
</g>
</svg>
