<?xml version="1.0" encoding="utf-8"?>
<!-- Generator: Adobe Illustrator 27.0.0, SVG Export Plug-In . SVG Version: 6.00 Build 0)  -->
<svg version="1.1" id="Capa_1" xmlns="http://www.w3.org/2000/svg" xmlns:xlink="http://www.w3.org/1999/xlink" x="0px" y="0px"
	 viewBox="0 0 512 512" style="enable-background:new 0 0 512 512;" xml:space="preserve">
<style type="text/css">
	.st0{fill:#FDD204;}
	.st1{fill:#FFFFFF;}
	.st2{fill:none;stroke:#000000;stroke-width:3.6754;stroke-miterlimit:10;}
</style>
<g>
	<g>
		<g>
			<path class="st0" d="M378.4,441.9c-15.9,0-17.5-1.5-17.5-7.7v-27.1H209.6v27.1c0,5.9-0.8,7.7-16.6,7.7h-6.6
				c-15.9,0-16.6-1.9-16.6-7.7v-31.1l-2-1.8c-1.8-1.6-3.5-3.1-5.1-4.4c-7.5-6.3-10.3-8.7-10.3-18.6V187.2
				c0-52.8,50.8-63.4,132.9-63.4s132.9,10.6,132.9,63.4v191.1c0,9.9-2.8,12.3-10.3,18.6c-1.5,1.3-3.2,2.7-5.1,4.4l-2,1.8v31.1
				c0,6.1-1.6,7.7-16.7,7.7H378.4z"/>
			<g>
				<path class="st1" d="M285.2,129.9c32.3,0,68.7,1.3,93.8,11.1c22.7,8.8,32.9,23.1,32.9,46.2v191.1c0,7.1-1.1,8-8.1,14
					c-1.6,1.3-3.3,2.8-5.2,4.5l-4,3.6v5.4v28.4c0,0.4,0,0.7,0,0.9c-2.5,0.6-8.2,0.6-10.5,0.6h-1.6h-1.7h-1.2h-1.2
					c-2.7,0-8.7,0-11.3-0.7c0-0.2,0-0.5,0-0.9v-21V401h-12.3h-139h-12.3v12.3v21c0,0.4,0,0.7,0,1c-2.5,0.6-8.2,0.6-10.5,0.6h-1.6
					h-1.7H188h-1.6c-2.3,0-8,0-10.5-0.6c0-0.3,0-0.6,0-1v-28.4v-5.4l-4-3.6c-1.9-1.7-3.7-3.2-5.2-4.5c-7-5.9-8.1-6.9-8.1-14V187.2
					c0-23.1,10.1-37.3,32.9-46.2C216.6,131.2,253,129.9,285.2,129.9 M285.2,117.6c-76.8,0-139,8.7-139,69.6v191.1
					c0,15.3,6.8,18,17.4,27.6v28.4c0,13.3,9.9,13.8,22.8,13.8c1.1,0,2.2,0,3.3,0s2.2,0,3.3,0c12.9,0,22.8-0.5,22.8-13.8v-21h139v21
					c0,13.4,10.3,13.8,23.6,13.8c0.8,0,1.6,0,2.4,0c1.1,0,2.2,0,3.3,0c12.7,0,22.8-0.5,22.8-13.8v-28.4
					c10.6-9.6,17.4-12.3,17.4-27.6V187.2C424.2,126.3,362,117.6,285.2,117.6L285.2,117.6z"/>
			</g>
		</g>
		<g>
			<rect x="199.4" y="396.2" class="st0" width="171" height="15"/>
		</g>
		<g>
			<path d="M285.2,121.3c33.1,0,70.4,1.4,97,11.7c12.6,4.9,21.8,11.4,28.2,19.8c6.9,9.1,10.2,20.4,10.2,34.3v191.1
				c0,11.1-3.7,14.2-11.1,20.5c-1.5,1.3-3.2,2.7-5,4.3l-1.2,1.1v1.6v28.4c0,8.8-4.5,10.2-19.1,10.2h-1.6h-1.7h-1.2h-1.2
				c-15.4,0-19.9-1.3-19.9-10.2v-21v-3.7h-3.7h-139h-3.7v3.7v21c0,8.8-4.3,10.2-19.1,10.2h-1.6h-1.7h-1.7h-1.6
				c-14.8,0-19.1-1.3-19.1-10.2v-28.4v-1.6l-1.2-1.1c-1.8-1.6-3.5-3.1-5-4.3c-7.4-6.3-11.1-9.4-11.1-20.5v-191
				c0-14,3.3-25.2,10.2-34.3c6.3-8.4,15.5-14.9,28.2-19.8C214.8,122.7,252.2,121.3,285.2,121.3 M285.2,117.6
				c-76.8,0-139,8.7-139,69.6v191.1c0,15.3,6.8,18,17.4,27.6v28.4c0,13.3,9.9,13.8,22.8,13.8c1.1,0,2.2,0,3.3,0s2.2,0,3.3,0
				c12.9,0,22.8-0.5,22.8-13.8v-21h139v21c0,13.4,10.3,13.8,23.6,13.8c0.8,0,1.6,0,2.4,0c1.1,0,2.2,0,3.3,0
				c12.7,0,22.8-0.5,22.8-13.8v-28.4c10.6-9.6,17.4-12.3,17.4-27.6V187.2C424.2,126.3,362,117.6,285.2,117.6L285.2,117.6z"/>
		</g>
		<g>
			<path class="st1" d="M193.7,320c-11.6,0-21.1-9.5-21.1-21.1V177.8c0-11.6,9.4-21.1,21.1-21.1h183.2c11.6,0,21.1,9.5,21.1,21.1
				v121.1c0,11.6-9.4,21.1-21.1,21.1H193.7z"/>
			<g>
				<path d="M376.8,158.5c10.6,0,19.2,8.6,19.2,19.2v121.1c0,10.6-8.6,19.2-19.2,19.2H193.7c-10.6,0-19.2-8.6-19.2-19.2v-121
					c0-10.6,8.6-19.2,19.2-19.2h183.1 M376.8,154.9H193.7c-12.6,0-22.9,10.3-22.9,22.9v121.1c0,12.6,10.3,22.9,22.9,22.9h183.2
					c12.6,0,22.9-10.3,22.9-22.9V177.8C399.7,165.2,389.4,154.9,376.8,154.9L376.8,154.9z"/>
			</g>
		</g>
		<line class="st2" x1="64.6" y1="447.8" x2="448.4" y2="447.8"/>
		<g>
			<ellipse class="st1" cx="381.4" cy="356.6" rx="17.8" ry="17.9"/>
			<g>
				<path d="M381.4,340.5c8.8,0,16,7.2,16,16s-7.2,16-16,16s-16-7.2-16-16S372.5,340.5,381.4,340.5 M381.4,336.9
					c-10.9,0-19.7,8.8-19.7,19.7c0,10.9,8.8,19.7,19.7,19.7s19.7-8.8,19.7-19.7C401.1,345.7,392.3,336.9,381.4,336.9L381.4,336.9z"
					/>
			</g>
		</g>
		<g>
			<ellipse class="st1" cx="191.7" cy="356.6" rx="17.8" ry="17.9"/>
			<g>
				<path d="M191.7,340.5c8.8,0,16,7.2,16,16s-7.2,16-16,16s-16-7.2-16-16S182.9,340.5,191.7,340.5 M191.7,336.9
					c-10.9,0-19.7,8.8-19.7,19.7c0,10.9,8.8,19.7,19.7,19.7s19.7-8.8,19.7-19.7C211.4,345.7,202.6,336.9,191.7,336.9L191.7,336.9z"
					/>
			</g>
		</g>
		<line class="st2" x1="252.7" y1="350.6" x2="321.5" y2="350.6"/>
		<line class="st2" x1="252.7" y1="364.7" x2="321.5" y2="364.7"/>
	</g>
	<g>
		<path class="st0" d="M132.5,64.3C96.6,64.3,64,91.9,64,134.6c0,27.2,21,59.3,62.8,96.2c3.3,2.8,8.1,2.8,11.4,0
			c41.8-36.9,62.7-69,62.7-96.2C201,91.9,168.5,64.3,132.5,64.3z"/>
	</g>
	<g>
		<path d="M132.5,67.6c17.2,0,33.3,6.5,45.4,18.2c12.7,12.3,19.8,29.7,19.8,48.8c0,26.1-20.7,57.6-61.6,93.7c-1,0.8-2.2,1.3-3.5,1.3
			s-2.6-0.5-3.5-1.3c-40.9-36.1-61.7-67.7-61.7-93.7c0-19.1,7-36.4,19.8-48.8C99.2,74.1,115.3,67.6,132.5,67.6 M132.5,64.3
			C96.6,64.3,64,91.9,64,134.6c0,27.2,21,59.3,62.8,96.2c1.6,1.4,3.7,2.1,5.7,2.1s4.1-0.7,5.7-2.1c41.8-36.9,62.7-69,62.7-96.2
			C201,91.9,168.5,64.3,132.5,64.3L132.5,64.3z"/>
	</g>
	<g>
		<path class="st1" d="M132.4,146.5c-8.8,0-16-7.2-16-16s7.2-16,16-16s16,7.2,16,16C148.5,139.3,141.3,146.5,132.4,146.5z"/>
		<path d="M132.4,116.1c7.9,0,14.4,6.5,14.4,14.4s-6.4,14.4-14.4,14.4c-7.9,0-14.4-6.5-14.4-14.4S124.5,116.1,132.4,116.1
			 M132.4,112.8c-9.8,0-17.7,7.9-17.7,17.7s7.9,17.7,17.7,17.7s17.7-7.9,17.7-17.7C150.1,120.7,142.2,112.8,132.4,112.8L132.4,112.8
			z"/>
	</g>
</g>
</svg>
