<svg id="Grupo_32304" data-name="Grupo 32304" xmlns="http://www.w3.org/2000/svg" xmlns:xlink="http://www.w3.org/1999/xlink" width="173.549" height="93.349" viewBox="0 0 173.549 93.349">
  <defs>
    <clipPath id="clip-path">
      <rect id="Rectángulo_26347" data-name="Rectángulo 26347" width="173.549" height="93.349" fill="#fed306"/>
    </clipPath>
  </defs>
  <g id="Grupo_32258" data-name="Grupo 32258" transform="translate(0 0)" clip-path="url(#clip-path)">
    <path id="Trazado_31967" data-name="Trazado 31967" d="M171.865,73.933,138.577,9.619A17.413,17.413,0,0,0,123,0h-.017A17.413,17.413,0,0,0,107.4,9.619L83.966,54.889a23.332,23.332,0,0,0-11.822-10.28A22.386,22.386,0,0,0,69.312,6.571,45.474,45.474,0,0,0,48.074,1.354H13.031A13.016,13.016,0,0,0,0,14.375V79.594A13.017,13.017,0,0,0,13.031,92.613h37.9A52.161,52.161,0,0,0,71.5,88.4l2.4-1.163c.136-.065.265-.133.395-.2A13.013,13.013,0,0,0,97.311,85.7a6.928,6.928,0,0,1,6.042-4.2h39.27a6.93,6.93,0,0,1,6.043,4.2,13.023,13.023,0,0,0,24.883-5.366,12.8,12.8,0,0,0-1.685-6.406" transform="translate(0 0)" fill="#fed306"/>
  </g>
</svg>
