<?xml version="1.0" encoding="utf-8"?>
<!-- Generator: Adobe Illustrator 27.0.0, SVG Export Plug-In . SVG Version: 6.00 Build 0)  -->
<svg version="1.1" id="Capa_1" xmlns="http://www.w3.org/2000/svg" xmlns:xlink="http://www.w3.org/1999/xlink" x="0px" y="0px"
	 viewBox="0 0 512 512" style="enable-background:new 0 0 512 512;" xml:space="preserve">
<style type="text/css">
	.st0{fill:#FDD204;}
	.st1{fill:#FFFFFF;}
	.st2{fill:none;stroke:#000000;stroke-width:3.6773;stroke-linecap:round;stroke-miterlimit:10;}
</style>
<g>
	<g>
		<g>
			<path class="st0" d="M168.8,442.3c-14.8,0-18.2-2.3-18.2-12.4V264.7c0-1.7,0.1-3.5,0.4-5.3l0.7-4.5l-0.2-0.1
				c2.2-7.2,6.5-13.4,12.4-17.5l99.6-71.1c5.8-4.1,12.6-6.3,19.6-6.3h0.7c7,0,13.8,2.2,19.6,6.3l99.5,71.1
				c5.9,4.2,10.2,10.3,12.4,17.5l-0.2,0.1l0.7,4.5c0.3,1.8,0.4,3.6,0.4,5.3V442h-40V324.2c0-10.3-8.4-18.7-18.7-18.7h-53.6
				c-10.3,0-18.7,8.4-18.7,18.7V442h-101c-2.9,0-5.7,0.1-8.4,0.1C173.3,442.2,171,442.3,168.8,442.3z"/>
			<path class="st1" d="M283.7,166c5.8,0,11.3,1.8,16,5.2l99.5,71.1l0,0l0,0c4.3,3.1,7.6,7.5,9.5,12.7l0.8,5.3
				c0.2,1.5,0.4,3,0.4,4.4v171.2h-27.6h-0.2V324.2c0-13.7-11.2-24.9-24.9-24.9h-53.6c-13.7,0-24.9,11.2-24.9,24.9v111.7h-69.3h-25.5
				c-3,0-5.8,0.1-8.5,0.1c-2.4,0.1-4.8,0.1-6.9,0.1c-9.1,0-11-1.1-11.4-1.4c-0.2-0.2-0.7-1.7-0.7-4.8V264.7c0-1.4,0.1-2.9,0.4-4.4
				l0.9-5.4c1.9-5.2,5.2-9.6,9.5-12.7l0,0l0,0l99.5-71.1c4.7-3.4,10.3-5.2,16-5.2h0.2h0.1h0.1L283.7,166 M283.7,153.8
				c-0.1,0-0.2,0-0.3,0c-0.1,0-0.2,0-0.3,0c-8.1,0-16.2,2.5-23.2,7.5l-99.5,71.1c-8.8,6.2-14.1,15.5-15.9,25.9
				c0.2,0.1,0.3,0.2,0.5,0.3c-0.3,2.1-0.5,4.2-0.5,6.3v165.2c0,16.4,10.1,18.5,24.4,18.5c4.8,0,10-0.2,15.4-0.2h25.5h80.7h0.8v-124
				c0-7,5.6-12.6,12.6-12.6h53.6c7,0,12.6,5.6,12.6,12.6v124h0.8h33.4h-21.8h39.8V264.7c0-2.1-0.2-4.2-0.5-6.3
				c0.2-0.1,0.3-0.2,0.5-0.3c-1.8-10.4-7.2-19.7-15.9-25.9l-99.5-71.1C299.9,156.3,291.8,153.8,283.7,153.8L283.7,153.8z"/>
		</g>
		<g>
			<rect x="156.7" y="408.8" class="st0" width="122.1" height="39.6"/>
		</g>
		<g>
			<rect x="382.3" y="408.8" class="st0" width="27.7" height="39.6"/>
		</g>
		<g>
			<path d="M283,157.5h0.3l0,0l0,0h0.3c7.6,0,14.8,2.3,21,6.8l99.5,71.1c6.9,4.9,11.8,12.2,13.9,20.8l-0.4,0.2l0.4,2.7
				c0.3,2,0.5,3.9,0.5,5.7v179.8h-36.1h-8.8V324.2c0-9-7.3-16.3-16.3-16.3h-53.6c-9,0-16.3,7.3-16.3,16.3v120.3h-77.8h-25.5H148
				V264.7c0-1.9,0.2-3.8,0.5-5.7l0.4-2.7l-0.4-0.2c2.1-8.6,7-16,13.9-20.8l99.5-71.1C268.2,159.8,275.5,157.5,283,157.5
				 M283.7,153.8c-0.1,0-0.2,0-0.3,0c-0.1,0-0.2,0-0.3,0c-8.1,0-16.2,2.5-23.2,7.5l-99.5,71.1c-8.8,6.2-14.1,15.5-15.9,25.9
				c0.2,0.1,0.3,0.2,0.5,0.3c-0.3,2.1-0.5,4.2-0.5,6.3v183.5h39.8h25.5h80.7h0.8v-124c0-7,5.6-12.6,12.6-12.6h53.6
				c7,0,12.6,5.6,12.6,12.6v124h0.8h33.4h-21.8h39.8V264.7c0-2.1-0.2-4.2-0.5-6.3c0.2-0.1,0.3-0.2,0.5-0.3
				c-1.8-10.4-7.2-19.7-15.9-25.9l-99.5-71.1C299.9,156.3,291.8,153.8,283.7,153.8L283.7,153.8z"/>
		</g>
		<g>
			<path class="st1" d="M186.7,370.3v-50c0-6,4.9-10.9,10.9-10.9h35.9c6,0,10.9,4.9,10.9,10.9v50H186.7z"/>
			<g>
				<path d="M233.5,311.3c5,0,9.1,4.1,9.1,9.1v48.1h-54v-48.1c0-5,4.1-9.1,9.1-9.1H233.5 M233.5,307.6h-35.9
					c-7,0-12.7,5.7-12.7,12.7v51.8h61.4v-51.8C246.2,313.3,240.5,307.6,233.5,307.6L233.5,307.6z"/>
			</g>
		</g>
		<line class="st2" x1="65.9" y1="447.2" x2="445.2" y2="447.2"/>
		<g>
			<g>
				<path class="st1" d="M433.5,281.1c-2.6,0-5.1-0.8-7.2-2.4l-132.1-97.1c-2.9-2.1-6.3-3.2-9.8-3.2s-6.8,1.1-9.7,3.1l-134.5,97.2
					c-2.1,1.5-4.6,2.3-7.2,2.3c-3.9,0-7.6-1.9-9.9-5.1c-1.9-2.7-2.7-5.9-2.2-9.1s2.3-6.1,4.9-8l134.5-97.2
					c7.1-5.1,15.4-7.8,24.1-7.8c8.8,0,17.2,2.8,24.3,8L440.8,259c5.4,4,6.6,11.7,2.6,17.1C441.1,279.3,437.4,281.1,433.5,281.1z"/>
				<path d="M284.5,155.7c8.4,0,16.4,2.6,23.2,7.7l132.1,97.1c2.2,1.6,3.7,4.1,4.1,6.8c0.4,2.8-0.3,5.5-1.9,7.7
					c-2,2.7-5,4.2-8.4,4.2c-2.2,0-4.4-0.7-6.2-2l-132.1-97.1c-3.2-2.3-7-3.6-10.9-3.6s-7.6,1.2-10.8,3.5l-134.5,97.2
					c-1.8,1.3-3.9,2-6.1,2c-3.3,0-6.5-1.6-8.5-4.3c-1.6-2.3-2.3-5-1.8-7.8c0.4-2.7,1.9-5.2,4.2-6.8l134.5-97.2
					C268.2,158.3,276.2,155.7,284.5,155.7 M284.5,152.1c-8.8,0-17.6,2.7-25.1,8.2l-134.5,97.2c-6.3,4.6-7.7,13.4-3.2,19.7
					c2.8,3.8,7.1,5.8,11.4,5.8c2.9,0,5.8-0.9,8.2-2.7l134.5-97.2c2.6-1.9,5.6-2.8,8.6-2.8c3.1,0,6.1,1,8.7,2.9l132.1,97.1
					c2.5,1.8,5.4,2.7,8.3,2.7c4.3,0,8.6-2,11.4-5.7c4.6-6.3,3.3-15.1-3-19.7l-132.1-97.1C302.3,154.8,293.4,152.1,284.5,152.1
					L284.5,152.1z"/>
			</g>
		</g>
	</g>
	<g>
		<g>
			<path class="st0" d="M85.9,63.5c-12.5,0-22.7,10.2-22.7,22.7v120.1c0,12.5,10.2,22.7,22.7,22.7h178.2c12.5,0,22.7-10.2,22.7-22.7
				V86.2c0-12.5-10.2-22.7-22.7-22.7C264.1,63.5,85.9,63.5,85.9,63.5z"/>
		</g>
		<g>
			<path d="M264.1,67.2c10.5,0,19.1,8.5,19.1,19.1v120.1c0,10.5-8.5,19.1-19.1,19.1H85.9c-10.5,0-19.1-8.5-19.1-19.1V86.2
				c0-10.5,8.5-19.1,19.1-19.1L264.1,67.2 M264.1,63.5H85.9c-12.5,0-22.7,10.2-22.7,22.7v120.1c0,12.5,10.2,22.7,22.7,22.7h178.2
				c12.5,0,22.7-10.2,22.7-22.7V86.2C286.8,73.7,276.6,63.5,264.1,63.5L264.1,63.5z"/>
		</g>
		<g>
			<circle class="st1" cx="130.8" cy="128.6" r="17.7"/>
			<path d="M130.8,112.7c8.8,0,15.9,7.1,15.9,15.9s-7.1,15.9-15.9,15.9c-8.8,0-15.9-7.1-15.9-15.9S122.1,112.7,130.8,112.7
				 M130.8,109c-10.8,0-19.5,8.7-19.5,19.5S120,148,130.8,148s19.5-8.7,19.5-19.5S141.6,109,130.8,109L130.8,109z"/>
		</g>
		<g>
			<path class="st1" d="M93.6,183.2v-3.8c0-7.1,4.3-13.6,10.9-16.4c8.3-3.6,17.1-5.5,26.4-5.5c9.2,0,18.1,1.8,26.4,5.4
				c6.6,2.9,10.9,9.3,10.9,16.4v3.8H93.6V183.2z"/>
			<path d="M130.8,159.4c9,0,17.6,1.8,25.6,5.3c5.9,2.6,9.8,8.4,9.8,14.7v1.9H95.4v-1.9c0-6.4,3.8-12.2,9.8-14.7
				C113.2,161.2,121.8,159.4,130.8,159.4 M130.8,155.7c-9.6,0-18.8,2-27.1,5.6c-7.3,3.1-12,10.3-12,18.1v5.6h78.2v-5.6
				c0-7.9-4.8-15-12-18.1C149.6,157.7,140.5,155.7,130.8,155.7L130.8,155.7z"/>
		</g>
		<line class="st2" x1="191.3" y1="119" x2="245" y2="119"/>
		<line class="st2" x1="191.3" y1="140.1" x2="245" y2="140.1"/>
		<line class="st2" x1="191.3" y1="161.1" x2="245" y2="161.1"/>
	</g>
</g>
</svg>
